<?xml version="1.0" encoding="UTF-8" standalone="no"?>
<!DOCTYPE svg PUBLIC "-//W3C//DTD SVG 1.1//EN"
 "http://www.w3.org/Graphics/SVG/1.1/DTD/svg11.dtd">
<!-- Generated by graphviz version 12.1.2 (0)
 -->
<!-- Pages: 1 -->
<svg width="298pt" height="188pt"
 viewBox="0.00 0.00 298.09 188.00" xmlns="http://www.w3.org/2000/svg" xmlns:xlink="http://www.w3.org/1999/xlink">
<g id="graph0" class="graph" transform="scale(1 1) rotate(0) translate(4 184)">
<polygon fill="white" stroke="none" points="-4,4 -4,-184 294.09,-184 294.09,4 -4,4"/>
<!-- Education -->
<g id="node1" class="node">
<title>Education</title>
<ellipse fill="none" stroke="black" cx="156.24" cy="-90" rx="61.73" ry="18"/>
<text text-anchor="middle" x="156.24" y="-85.33" font-family="Times,serif" font-size="14.00">Education</text>
</g>
<!-- Earnings -->
<g id="node2" class="node">
<title>Earnings</title>
<ellipse fill="none" stroke="black" cx="201.24" cy="-18" rx="56.47" ry="18"/>
<text text-anchor="middle" x="201.24" y="-13.32" font-family="Times,serif" font-size="14.00">Earnings</text>
</g>
<!-- Education&#45;&gt;Earnings -->
<g id="edge1" class="edge">
<title>Education&#45;&gt;Earnings</title>
<path fill="none" stroke="black" stroke-dasharray="5,2" d="M167.14,-72.05C172.28,-64.06 178.53,-54.33 184.27,-45.4"/>
<polygon fill="black" stroke="black" points="187.17,-47.37 189.63,-37.06 181.28,-43.58 187.17,-47.37"/>
</g>
<!-- Ability -->
<g id="node3" class="node">
<title>Ability</title>
<ellipse fill="none" stroke="black" cx="246.24" cy="-162" rx="43.84" ry="18"/>
<text text-anchor="middle" x="246.24" y="-157.32" font-family="Times,serif" font-size="14.00">Ability</text>
</g>
<!-- Ability&#45;&gt;Education -->
<g id="edge2" class="edge">
<title>Ability&#45;&gt;Education</title>
<path fill="none" stroke="black" d="M226.72,-145.81C214.87,-136.6 199.51,-124.65 186.16,-114.27"/>
<polygon fill="black" stroke="black" points="188.54,-111.69 178.5,-108.31 184.24,-117.21 188.54,-111.69"/>
</g>
<!-- Ability&#45;&gt;Earnings -->
<g id="edge3" class="edge">
<title>Ability&#45;&gt;Earnings</title>
<path fill="none" stroke="black" d="M243.83,-143.6C241,-125.4 235.62,-96.19 227.24,-72 224.26,-63.38 220.21,-54.35 216.19,-46.23"/>
<polygon fill="black" stroke="black" points="219.41,-44.83 211.72,-37.55 213.19,-48.04 219.41,-44.83"/>
</g>
<!-- Quarter of Birth -->
<g id="node4" class="node">
<title>Quarter of Birth</title>
<ellipse fill="none" stroke="black" cx="92.24" cy="-162" rx="92.24" ry="18"/>
<text text-anchor="middle" x="92.24" y="-157.32" font-family="Times,serif" font-size="14.00">Quarter of Birth</text>
</g>
<!-- Quarter of Birth&#45;&gt;Education -->
<g id="edge4" class="edge">
<title>Quarter of Birth&#45;&gt;Education</title>
<path fill="none" stroke="black" d="M107.74,-144.05C115.36,-135.71 124.71,-125.49 133.16,-116.25"/>
<polygon fill="black" stroke="black" points="135.71,-118.65 139.87,-108.91 130.54,-113.92 135.71,-118.65"/>
</g>
</g>
</svg>
