<?xml version="1.0" encoding="UTF-8" standalone="no"?>
<!DOCTYPE svg PUBLIC "-//W3C//DTD SVG 1.1//EN"
 "http://www.w3.org/Graphics/SVG/1.1/DTD/svg11.dtd">
<!-- Generated by graphviz version 12.1.2 (0)
 -->
<!-- Pages: 1 -->
<svg width="203pt" height="188pt"
 viewBox="0.00 0.00 202.57 188.00" xmlns="http://www.w3.org/2000/svg" xmlns:xlink="http://www.w3.org/1999/xlink">
<g id="graph0" class="graph" transform="scale(1 1) rotate(0) translate(4 184)">
<polygon fill="white" stroke="none" points="-4,4 -4,-184 198.57,-184 198.57,4 -4,4"/>
<!-- Education -->
<g id="node1" class="node">
<title>Education</title>
<ellipse fill="none" stroke="black" cx="61.73" cy="-90" rx="61.73" ry="18"/>
<text text-anchor="middle" x="61.73" y="-85.33" font-family="Times,serif" font-size="14.00">Education</text>
</g>
<!-- Earnings -->
<g id="node2" class="node">
<title>Earnings</title>
<ellipse fill="none" stroke="black" cx="106.73" cy="-18" rx="56.47" ry="18"/>
<text text-anchor="middle" x="106.73" y="-13.32" font-family="Times,serif" font-size="14.00">Earnings</text>
</g>
<!-- Education&#45;&gt;Earnings -->
<g id="edge1" class="edge">
<title>Education&#45;&gt;Earnings</title>
<path fill="none" stroke="black" stroke-dasharray="5,2" d="M72.62,-72.05C77.76,-64.06 84.02,-54.33 89.76,-45.4"/>
<polygon fill="black" stroke="black" points="92.66,-47.37 95.12,-37.06 86.77,-43.58 92.66,-47.37"/>
</g>
<!-- Ability -->
<g id="node3" class="node">
<title>Ability</title>
<ellipse fill="none" stroke="black" cx="150.73" cy="-162" rx="43.84" ry="18"/>
<text text-anchor="middle" x="150.73" y="-157.32" font-family="Times,serif" font-size="14.00">Ability</text>
</g>
<!-- Ability&#45;&gt;Education -->
<g id="edge2" class="edge">
<title>Ability&#45;&gt;Education</title>
<path fill="none" stroke="black" d="M130.98,-145.46C119.24,-136.24 104.14,-124.36 91.04,-114.05"/>
<polygon fill="black" stroke="black" points="93.57,-111.59 83.54,-108.16 89.24,-117.09 93.57,-111.59"/>
</g>
<!-- Ability&#45;&gt;Earnings -->
<g id="edge3" class="edge">
<title>Ability&#45;&gt;Earnings</title>
<path fill="none" stroke="black" d="M148.56,-143.59C145.98,-125.4 140.95,-96.18 132.73,-72 129.79,-63.36 125.76,-54.33 121.74,-46.21"/>
<polygon fill="black" stroke="black" points="124.95,-44.81 117.26,-37.53 118.73,-48.02 124.95,-44.81"/>
</g>
<!-- ? -->
<g id="node4" class="node">
<title>?</title>
<ellipse fill="none" stroke="black" cx="61.73" cy="-162" rx="27" ry="18"/>
<text text-anchor="middle" x="61.73" y="-157.32" font-family="Times,serif" font-size="14.00">?</text>
</g>
<!-- ?&#45;&gt;Education -->
<g id="edge4" class="edge">
<title>?&#45;&gt;Education</title>
<path fill="none" stroke="black" d="M61.73,-143.7C61.73,-136.41 61.73,-127.73 61.73,-119.54"/>
<polygon fill="black" stroke="black" points="65.23,-119.62 61.73,-109.62 58.23,-119.62 65.23,-119.62"/>
</g>
</g>
</svg>
