<?xml version="1.0" encoding="UTF-8" standalone="no"?>
<!DOCTYPE svg PUBLIC "-//W3C//DTD SVG 1.1//EN"
 "http://www.w3.org/Graphics/SVG/1.1/DTD/svg11.dtd">
<!-- Generated by graphviz version 12.1.2 (0)
 -->
<!-- Pages: 1 -->
<svg width="134pt" height="188pt"
 viewBox="0.00 0.00 134.00 188.00" xmlns="http://www.w3.org/2000/svg" xmlns:xlink="http://www.w3.org/1999/xlink">
<g id="graph0" class="graph" transform="scale(1 1) rotate(0) translate(4 184)">
<polygon fill="white" stroke="none" points="-4,4 -4,-184 130,-184 130,4 -4,4"/>
<!-- X -->
<g id="node1" class="node">
<title>X</title>
<ellipse fill="none" stroke="black" cx="44" cy="-90" rx="27" ry="18"/>
<text text-anchor="middle" x="44" y="-85.33" font-family="Times,serif" font-size="14.00">X</text>
</g>
<!-- Y -->
<g id="node2" class="node">
<title>Y</title>
<ellipse fill="none" stroke="black" cx="71" cy="-18" rx="27" ry="18"/>
<text text-anchor="middle" x="71" y="-13.32" font-family="Times,serif" font-size="14.00">Y</text>
</g>
<!-- X&#45;&gt;Y -->
<g id="edge1" class="edge">
<title>X&#45;&gt;Y</title>
<path fill="none" stroke="black" stroke-dasharray="5,2" d="M50.54,-72.05C53.52,-64.32 57.13,-54.96 60.48,-46.27"/>
<polygon fill="black" stroke="black" points="63.65,-47.79 63.98,-37.2 57.12,-45.27 63.65,-47.79"/>
</g>
<!-- ϵ -->
<g id="node3" class="node">
<title>ϵ</title>
<ellipse fill="none" stroke="black" cx="99" cy="-162" rx="27" ry="18"/>
<text text-anchor="middle" x="99" y="-157.32" font-family="Times,serif" font-size="14.00">ϵ</text>
</g>
<!-- ϵ&#45;&gt;X -->
<g id="edge3" class="edge">
<title>ϵ&#45;&gt;X</title>
<path fill="none" stroke="black" d="M86.79,-145.46C79.89,-136.67 71.09,-125.48 63.27,-115.53"/>
<polygon fill="black" stroke="black" points="66.04,-113.38 57.11,-107.68 60.53,-117.71 66.04,-113.38"/>
</g>
<!-- ϵ&#45;&gt;Y -->
<g id="edge2" class="edge">
<title>ϵ&#45;&gt;Y</title>
<path fill="none" stroke="black" d="M95.62,-143.87C90.89,-119.88 82.24,-75.99 76.55,-47.16"/>
<polygon fill="black" stroke="black" points="80.05,-46.81 74.68,-37.67 73.18,-48.16 80.05,-46.81"/>
</g>
<!-- Z -->
<g id="node4" class="node">
<title>Z</title>
<ellipse fill="none" stroke="black" cx="27" cy="-162" rx="27" ry="18"/>
<text text-anchor="middle" x="27" y="-157.32" font-family="Times,serif" font-size="14.00">Z</text>
</g>
<!-- Z&#45;&gt;X -->
<g id="edge4" class="edge">
<title>Z&#45;&gt;X</title>
<path fill="none" stroke="black" d="M31.12,-144.05C32.93,-136.6 35.1,-127.64 37.15,-119.22"/>
<polygon fill="black" stroke="black" points="40.49,-120.29 39.45,-109.75 33.69,-118.64 40.49,-120.29"/>
</g>
</g>
</svg>
